Coordinates
version=1
nRows=26
nColumns=24
inDegrees=yes

Units are S.I. units (second, meters, Newtons, ...)
Angles are in degrees.

endheader
time	pelvis_tilt	pelvis_list	pelvis_rotation	pelvis_tx	pelvis_ty	pelvis_tz	hip_flexion_r	hip_adduction_r	hip_rotation_r	knee_angle_r	ankle_angle_r	subtalar_angle_r	mtp_angle_r	hip_flexion_l	hip_adduction_l	hip_rotation_l	knee_angle_l	ankle_angle_l	subtalar_angle_l	mtp_angle_l	lumbar_extension	lumbar_bending	lumbar_rotation
      1.38850000	      0.79649499	      0.53523463	     -3.48036063	      0.18382929	      1.01809476	      0.28080854	     15.43371357	     -5.25785127	     -5.88209587	    -67.85654335	     -0.55727372	    -10.97514802	     -3.57573801	      9.94679438	      1.61582410	     -9.83733297	    -10.77086918	     -1.78989173	    -13.35996535	     -2.00280010	    -11.73435526	     -3.18977796	      5.37937268
      1.39266667	      0.82453538	      0.38782004	     -3.18690921	      0.18865417	      1.01895858	      0.27984096	     15.88650369	     -5.13142398	     -6.22811689	    -67.53145453	     -0.39450343	    -10.98805733	     -3.75483245	      9.54128139	      1.57317547	     -9.55442590	    -10.60750070	     -1.62276288	    -13.25743205	     -2.02771814	    -11.82177688	     -2.93463715	      5.00679435
      1.39683333	      0.87601174	      0.25358613	     -2.94775173	      0.19340440	      1.01980254	      0.27903292	     16.32607821	     -4.99863237	     -6.51631611	    -67.17680465	     -0.15661148	    -10.96955989	     -3.91409773	      9.10779415	      1.52374739	     -9.34982616	    -10.43258112	     -1.48870911	    -13.13394026	     -2.05020139	    -11.94823805	     -2.71960172	      4.78017794
      1.40100000	      0.87952596	      0.14642579	     -2.78096756	      0.19814382	      1.02053630	      0.27841474	     16.83115596	     -4.86274607	     -6.73028071	    -66.78696004	      0.09413774	    -11.00701247	     -3.98360973	      8.72144754	      1.47786890	     -9.24454459	    -10.25162375	     -1.40924310	    -13.01172185	     -2.05907057	    -12.01958858	     -2.54054487	      4.65962030
      1.40516667	      0.91395285	     -0.01089628	     -2.52356569	      0.20289578	      1.02133013	      0.27760429	     17.24671109	     -4.71457230	     -7.05932501	    -66.28772642	      0.28540639	    -10.98235916	     -4.08521413	      8.31416258	      1.39185121	     -9.04409256	    -10.09541964	     -1.23672327	    -12.79364843	     -2.06871071	    -12.12757399	     -2.29669300	      4.41346876
      1.40933333	      0.99545860	     -0.16275985	     -2.24028442	      0.20765854	      1.02219348	      0.27671046	     17.58190993	     -4.59669060	     -7.43243723	    -65.70913359	      0.42685064	    -10.96694154	     -4.22198283	      7.84728951	      1.32187986	     -8.80129385	     -9.91515805	     -1.06840036	    -12.62948915	     -2.08301511	    -12.28685682	     -2.04250608	      4.08696043
      1.41350000	      1.07733637	     -0.30870358	     -1.96315129	      0.21246407	      1.02304168	      0.27584055	     17.89445120	     -4.48775684	     -7.81267166	    -65.06654553	      0.59273791	    -10.95168301	     -4.37395993	      7.37543892	      1.25114760	     -8.59729648	     -9.72576497	     -0.93403231	    -12.49297933	     -2.09959893	    -12.42494821	     -1.79807625	      3.80525214
      1.41766667	      1.15720896	     -0.44999368	     -1.70891713	      0.21724008	      1.02385054	      0.27504187	     18.20338668	     -4.37279329	     -8.16733160	    -64.37527851	      0.75390409	    -10.94662420	     -4.51820165	      6.90310198	      1.17478503	     -8.41226538	     -9.53026355	     -0.80155858	    -12.32890143	     -2.11484334	    -12.56790765	     -1.57218020	      3.55425052
      1.42183333	      1.25603700	     -0.59129598	     -1.45529746	      0.22199786	      1.02466102	      0.27426619	     18.47379832	     -4.25786501	     -8.52862407	    -63.62388185	      0.91609244	    -10.94439808	     -4.66689737	      6.40826295	      1.09351923	     -8.22493583	     -9.32586817	     -0.67442948	    -12.15798847	     -2.12927071	    -12.74150825	     -1.34460977	      3.29975804
      1.42600000	      1.34838175	     -0.72392950	     -1.20235825	      0.22677879	      1.02543590	      0.27349463	     18.73119023	     -4.15703464	     -8.89745368	    -62.81448360	      1.06754130	    -10.93758604	     -4.81202782	      5.91879821	      1.01660617	     -8.05463228	     -9.11803259	     -0.54700969	    -11.98816522	     -2.14233503	    -12.89662920	     -1.12228819	      3.04941775
      1.43016667	      1.43508659	     -0.85678209	     -0.94609707	      0.23156954	      1.02617910	      0.27273307	     18.97252984	     -4.05641782	     -9.27483313	    -61.94209181	      1.21121524	    -10.93588080	     -4.95040380	      5.43699529	      0.93383577	     -7.89108574	     -8.91160874	     -0.42221107	    -11.81270364	     -2.15284511	    -13.04213951	     -0.89077554	      2.80941714
      1.43433333	      1.55895983	     -0.98509681	     -0.69388812	      0.23636121	      1.02694784	      0.27197403	     19.15314198	     -3.96343349	     -9.65580788	    -61.01243381	      1.34834732	    -10.93479325	     -5.09227366	      4.90852641	      0.85372810	     -7.72943192	     -8.69100009	     -0.29502692	    -11.63824706	     -2.16197742	    -13.23003544	     -0.67599971	      2.54985504
      1.43850000	      1.67906191	     -1.10198594	     -0.44757543	      0.24117171	      1.02767339	      0.27122905	     19.31895934	     -3.88337910	    -10.03725703	    -60.02994902	      1.47875335	    -10.93063290	     -5.22192115	      4.38459845	      0.78035318	     -7.59614766	     -8.47038870	     -0.17331083	    -11.46922364	     -2.16721637	    -13.40283178	     -0.45798792	      2.32318233
      1.44266667	      1.78368080	     -1.21721662	     -0.19881266	      0.24596477	      1.02834806	      0.27052437	     19.48261287	     -3.79805205	    -10.41797865	    -58.99207599	      1.60534657	    -10.94253090	     -5.35395173	      3.87746602	      0.70276274	     -7.43028486	     -8.24627076	     -0.05327473	    -11.30399459	     -2.17050377	    -13.56952036	     -0.26414190	      2.07615770
      1.44683333	      1.92098132	     -1.32659391	      0.05421016	      0.25077036	      1.02903925	      0.26980356	     19.58599677	     -3.72376968	    -10.81146419	    -57.89460109	      1.72385395	    -10.94793735	     -5.48952422	      3.33439641	      0.62824638	     -7.28219831	     -8.01845919	      0.07183443	    -11.13620700	     -2.17074377	    -13.76537861	     -0.06387583	      1.83009797
      1.45100000	      2.02827925	     -1.41685075	      0.29079246	      0.25559509	      1.02963923	      0.26911850	     19.70836731	     -3.66576416	    -11.19118412	    -56.75700278	      1.83363674	    -10.94782445	     -5.61661442	      2.82380468	      0.56914656	     -7.15511207	     -7.79431001	      0.19442113	    -10.98476780	     -2.16805494	    -13.91923619	      0.11914428	      1.60380595
      1.45516667	      2.13242763	     -1.50631569	      0.53245441	      0.26040588	      1.03020309	      0.26844917	     19.81222342	     -3.60373818	    -11.57414831	    -55.56298939	      1.94181113	    -10.96006617	     -5.74535121	      2.31842943	      0.50632390	     -7.00934389	     -7.56889725	      0.31701689	    -10.83113324	     -2.16198368	    -14.07663144	      0.28947324	      1.36670572
      1.45933333	      2.23540276	     -1.58214060	      0.76536268	      0.26523213	      1.03072320	      0.26780959	     19.89842052	     -3.55248048	    -11.95158182	    -54.32198133	      2.04338198	    -10.96784823	     -5.87142204	      1.81402639	      0.45299131	     -6.88279341	     -7.34486193	      0.43927676	    -10.68299694	     -2.15375446	    -14.22662457	      0.44882219	      1.14217886
      1.46350000	      2.36018392	     -1.64697210	      0.99041675	      0.27005160	      1.03123453	      0.26719660	     19.94215596	     -3.50714558	    -12.32221625	    -53.03158336	      2.14119921	    -10.98035496	     -6.00119198	      1.28467549	      0.40659969	     -6.76069010	     -7.11680762	      0.55812242	    -10.54018867	     -2.14231650	    -14.40160556	      0.59400877	      0.91875691
      1.46766667	      2.44176941	     -1.70098766	      1.21230306	      0.27488269	      1.03163999	      0.26660472	     20.01421218	     -3.46983984	    -12.69098777	    -51.69706661	      2.22452388	    -10.99917177	     -6.12425503	      0.80784108	      0.36741906	     -6.64379049	     -6.90393284	      0.69261149	    -10.39477048	     -2.12813297	    -14.52318209	      0.72704144	      0.70832184
      1.47183333	      2.53073371	     -1.74217423	      1.42611760	      0.27972077	      1.03201681	      0.26604407	     20.05810792	     -3.43904588	    -13.05011970	    -50.31536238	      2.31005414	    -11.01115285	     -6.25076592	      0.32031608	      0.33838647	     -6.52746099	     -6.68691128	      0.81762265	    -10.25962399	     -2.11201561	    -14.65321370	      0.84188229	      0.49404530
      1.47600000	      2.58707639	     -1.76802015	      1.62699069	      0.28456170	      1.03229894	      0.26553529	     20.12229404	     -3.41493982	    -13.39299763	    -48.89460175	      2.38620503	    -11.03193483	     -6.37174797	     -0.12915412	      0.32076485	     -6.42226626	     -6.47896645	      0.94515152	    -10.12827935	     -2.09438608	    -14.74461793	      0.93423608	      0.30035091
      1.48016667	      2.64680449	     -1.78090734	      1.82009150	      0.28940028	      1.03254420	      0.26505122	     20.16459419	     -3.39855551	    -13.72733483	    -47.43028968	      2.45767506	    -11.04838401	     -6.49536733	     -0.58271222	      0.31344023	     -6.32462507	     -6.27217502	      1.07685170	     -9.99324147	     -2.07515843	    -14.84109639	      1.01039588	      0.10401917
      1.48433333	      2.67861621	     -1.78450415	      2.00134513	      0.29425714	      1.03270674	      0.26461596	     20.21780721	     -3.38220622	    -14.04876452	    -45.92234556	      2.51911617	    -11.06318919	     -6.61188831	     -1.00447618	      0.31186143	     -6.23683300	     -6.07485359	      1.21381422	     -9.85404083	     -2.05615891	    -14.90415648	      1.07041351	     -0.07057674
      1.48850000	      2.71644312	     -1.77344188	      2.17182302	      0.29911585	      1.03283923	      0.26421899	     20.24550895	     -3.37210370	    -14.35727654	    -44.37098553	      2.57448790	    -11.07222088	     -6.73257732	     -1.43451551	      0.32211687	     -6.15993895	     -5.87669720	      1.34927671	     -9.71282639	     -2.03609251	    -14.97235054	      1.11219024	     -0.24657492
      1.49266667	      2.72138132	     -1.75011248	      2.33119619	      0.30397391	      1.03287716	      0.26385623	     20.29320402	     -3.36767464	    -14.65285298	    -42.78289071	      2.61855813	    -11.08237419	     -6.84825630	     -1.82523423	      0.34324680	     -6.09736864	     -5.69002286	      1.48840944	     -9.57486362	     -2.01662594	    -15.00866222	      1.13109688	     -0.40279321
